<svg xmlns="http://www.w3.org/2000/svg" viewBox="0 0 46 40" shape-rendering="crispEdges"><rect x="40" y="1" width="1" height="1" fill="#ffffff"/><rect x="31" y="2" width="1" height="1" fill="#f6c945"/><rect x="40" y="2" width="1" height="1" fill="#ffffff"/><rect x="41" y="2" width="1" height="1" fill="#dbe1ea"/><rect x="31" y="3" width="1" height="1" fill="#f6c945"/><rect x="40" y="3" width="1" height="1" fill="#ffffff"/><rect x="41" y="3" width="1" height="1" fill="#dbe1ea"/><rect x="29" y="4" width="5" height="1" fill="#f6c945"/><rect x="40" y="4" width="1" height="1" fill="#dbe1ea"/><rect x="41" y="4" width="1" height="1" fill="#aab3c0"/><rect x="18" y="5" width="3" height="1" fill="#2e1a0e"/><rect x="31" y="5" width="1" height="1" fill="#f6c945"/><rect x="40" y="5" width="1" height="1" fill="#dbe1ea"/><rect x="41" y="5" width="1" height="1" fill="#aab3c0"/><rect x="17" y="6" width="1" height="1" fill="#2e1a0e"/><rect x="18" y="6" width="3" height="1" fill="#eda05f"/><rect x="21" y="6" width="1" height="1" fill="#2e1a0e"/><rect x="31" y="6" width="1" height="1" fill="#f6c945"/><rect x="40" y="6" width="1" height="1" fill="#dbe1ea"/><rect x="41" y="6" width="1" height="1" fill="#aab3c0"/><rect x="16" y="7" width="1" height="1" fill="#2e1a0e"/><rect x="17" y="7" width="3" height="1" fill="#eda05f"/><rect x="20" y="7" width="1" height="1" fill="#dd8047"/><rect x="21" y="7" width="1" height="1" fill="#eda05f"/><rect x="22" y="7" width="1" height="1" fill="#2e1a0e"/><rect x="40" y="7" width="1" height="1" fill="#dbe1ea"/><rect x="41" y="7" width="1" height="1" fill="#aab3c0"/><rect x="15" y="8" width="1" height="1" fill="#2e1a0e"/><rect x="16" y="8" width="2" height="1" fill="#eda05f"/><rect x="18" y="8" width="1" height="1" fill="#dd8047"/><rect x="19" y="8" width="1" height="1" fill="#eda05f"/><rect x="20" y="8" width="1" height="1" fill="#dd8047"/><rect x="21" y="8" width="1" height="1" fill="#eda05f"/><rect x="22" y="8" width="1" height="1" fill="#dd8047"/><rect x="23" y="8" width="1" height="1" fill="#2e1a0e"/><rect x="36" y="8" width="1" height="1" fill="#f6c945"/><rect x="40" y="8" width="1" height="1" fill="#dbe1ea"/><rect x="41" y="8" width="1" height="1" fill="#aab3c0"/><rect x="14" y="9" width="1" height="1" fill="#2e1a0e"/><rect x="15" y="9" width="3" height="1" fill="#eda05f"/><rect x="18" y="9" width="1" height="1" fill="#dd8047"/><rect x="19" y="9" width="1" height="1" fill="#eda05f"/><rect x="20" y="9" width="1" height="1" fill="#dd8047"/><rect x="21" y="9" width="1" height="1" fill="#eda05f"/><rect x="22" y="9" width="2" height="1" fill="#dd8047"/><rect x="24" y="9" width="1" height="1" fill="#2e1a0e"/><rect x="35" y="9" width="3" height="1" fill="#f6c945"/><rect x="40" y="9" width="1" height="1" fill="#dbe1ea"/><rect x="41" y="9" width="1" height="1" fill="#aab3c0"/><rect x="14" y="10" width="1" height="1" fill="#2e1a0e"/><rect x="15" y="10" width="1" height="1" fill="#eda05f"/><rect x="16" y="10" width="1" height="1" fill="#dd8047"/><rect x="17" y="10" width="1" height="1" fill="#eda05f"/><rect x="18" y="10" width="1" height="1" fill="#dd8047"/><rect x="19" y="10" width="1" height="1" fill="#eda05f"/><rect x="20" y="10" width="1" height="1" fill="#dd8047"/><rect x="21" y="10" width="1" height="1" fill="#eda05f"/><rect x="22" y="10" width="2" height="1" fill="#dd8047"/><rect x="24" y="10" width="1" height="1" fill="#2e1a0e"/><rect x="36" y="10" width="1" height="1" fill="#f6c945"/><rect x="40" y="10" width="1" height="1" fill="#dbe1ea"/><rect x="41" y="10" width="1" height="1" fill="#aab3c0"/><rect x="13" y="11" width="1" height="1" fill="#2e1a0e"/><rect x="14" y="11" width="1" height="1" fill="#eda05f"/><rect x="15" y="11" width="1" height="1" fill="#dd8047"/><rect x="16" y="11" width="1" height="1" fill="#eda05f"/><rect x="17" y="11" width="2" height="1" fill="#dd8047"/><rect x="19" y="11" width="1" height="1" fill="#eda05f"/><rect x="20" y="11" width="2" height="1" fill="#dd8047"/><rect x="22" y="11" width="1" height="1" fill="#eda05f"/><rect x="23" y="11" width="2" height="1" fill="#dd8047"/><rect x="25" y="11" width="1" height="1" fill="#2e1a0e"/><rect x="40" y="11" width="1" height="1" fill="#dbe1ea"/><rect x="41" y="11" width="1" height="1" fill="#aab3c0"/><rect x="12" y="12" width="1" height="1" fill="#2e1a0e"/><rect x="13" y="12" width="1" height="1" fill="#dd8047"/><rect x="14" y="12" width="1" height="1" fill="#eda05f"/><rect x="15" y="12" width="1" height="1" fill="#dd8047"/><rect x="16" y="12" width="1" height="1" fill="#eda05f"/><rect x="17" y="12" width="2" height="1" fill="#dd8047"/><rect x="19" y="12" width="1" height="1" fill="#eda05f"/><rect x="20" y="12" width="3" height="1" fill="#dd8047"/><rect x="23" y="12" width="1" height="1" fill="#c1652f"/><rect x="24" y="12" width="1" height="1" fill="#dd8047"/><rect x="25" y="12" width="1" height="1" fill="#c1652f"/><rect x="26" y="12" width="1" height="1" fill="#2e1a0e"/><rect x="40" y="12" width="1" height="1" fill="#dbe1ea"/><rect x="41" y="12" width="1" height="1" fill="#aab3c0"/><rect x="11" y="13" width="1" height="1" fill="#2e1a0e"/><rect x="12" y="13" width="2" height="1" fill="#dd8047"/><rect x="14" y="13" width="1" height="1" fill="#eda05f"/><rect x="15" y="13" width="1" height="1" fill="#dd8047"/><rect x="16" y="13" width="1" height="1" fill="#eda05f"/><rect x="17" y="13" width="2" height="1" fill="#dd8047"/><rect x="19" y="13" width="1" height="1" fill="#eda05f"/><rect x="20" y="13" width="1" height="1" fill="#dd8047"/><rect x="21" y="13" width="1" height="1" fill="#c1652f"/><rect x="22" y="13" width="1" height="1" fill="#dd8047"/><rect x="23" y="13" width="1" height="1" fill="#c1652f"/><rect x="24" y="13" width="1" height="1" fill="#dd8047"/><rect x="25" y="13" width="2" height="1" fill="#c1652f"/><rect x="27" y="13" width="1" height="1" fill="#2e1a0e"/><rect x="40" y="13" width="1" height="1" fill="#dbe1ea"/><rect x="41" y="13" width="1" height="1" fill="#aab3c0"/><rect x="10" y="14" width="1" height="1" fill="#2e1a0e"/><rect x="11" y="14" width="3" height="1" fill="#dd8047"/><rect x="14" y="14" width="1" height="1" fill="#eda05f"/><rect x="15" y="14" width="1" height="1" fill="#dd8047"/><rect x="16" y="14" width="1" height="1" fill="#eda05f"/><rect x="17" y="14" width="2" height="1" fill="#dd8047"/><rect x="19" y="14" width="1" height="1" fill="#eda05f"/><rect x="20" y="14" width="2" height="1" fill="#c1652f"/><rect x="22" y="14" width="1" height="1" fill="#dd8047"/><rect x="23" y="14" width="1" height="1" fill="#c1652f"/><rect x="24" y="14" width="1" height="1" fill="#dd8047"/><rect x="25" y="14" width="3" height="1" fill="#c1652f"/><rect x="28" y="14" width="1" height="1" fill="#2e1a0e"/><rect x="40" y="14" width="1" height="1" fill="#dbe1ea"/><rect x="41" y="14" width="1" height="1" fill="#aab3c0"/><rect x="9" y="15" width="1" height="1" fill="#2e1a0e"/><rect x="10" y="15" width="9" height="1" fill="#dd8047"/><rect x="19" y="15" width="10" height="1" fill="#c1652f"/><rect x="29" y="15" width="1" height="1" fill="#2e1a0e"/><rect x="40" y="15" width="1" height="1" fill="#dbe1ea"/><rect x="41" y="15" width="1" height="1" fill="#aab3c0"/><rect x="8" y="16" width="1" height="1" fill="#2e1a0e"/><rect x="9" y="16" width="8" height="1" fill="#dd8047"/><rect x="17" y="16" width="13" height="1" fill="#c1652f"/><rect x="30" y="16" width="1" height="1" fill="#2e1a0e"/><rect x="40" y="16" width="1" height="1" fill="#dbe1ea"/><rect x="41" y="16" width="1" height="1" fill="#aab3c0"/><rect x="7" y="17" width="1" height="1" fill="#2e1a0e"/><rect x="8" y="17" width="8" height="1" fill="#dd8047"/><rect x="16" y="17" width="15" height="1" fill="#c1652f"/><rect x="31" y="17" width="1" height="1" fill="#2e1a0e"/><rect x="40" y="17" width="1" height="1" fill="#dbe1ea"/><rect x="41" y="17" width="1" height="1" fill="#aab3c0"/><rect x="6" y="18" width="1" height="1" fill="#2e1a0e"/><rect x="7" y="18" width="2" height="1" fill="#dd8047"/><rect x="9" y="18" width="7" height="1" fill="#131313"/><rect x="16" y="18" width="7" height="1" fill="#c1652f"/><rect x="23" y="18" width="7" height="1" fill="#131313"/><rect x="30" y="18" width="2" height="1" fill="#c1652f"/><rect x="32" y="18" width="1" height="1" fill="#2e1a0e"/><rect x="40" y="18" width="1" height="1" fill="#dbe1ea"/><rect x="41" y="18" width="1" height="1" fill="#aab3c0"/><rect x="6" y="19" width="3" height="1" fill="#131313"/><rect x="9" y="19" width="2" height="1" fill="#ffffff"/><rect x="11" y="19" width="12" height="1" fill="#131313"/><rect x="23" y="19" width="2" height="1" fill="#ffffff"/><rect x="25" y="19" width="8" height="1" fill="#131313"/><rect x="40" y="19" width="1" height="1" fill="#dbe1ea"/><rect x="41" y="19" width="1" height="1" fill="#aab3c0"/><rect x="6" y="20" width="1" height="1" fill="#2e1a0e"/><rect x="7" y="20" width="1" height="1" fill="#dd8047"/><rect x="8" y="20" width="3" height="1" fill="#131313"/><rect x="11" y="20" width="1" height="1" fill="#2b2b2b"/><rect x="12" y="20" width="5" height="1" fill="#131313"/><rect x="17" y="20" width="5" height="1" fill="#c1652f"/><rect x="22" y="20" width="3" height="1" fill="#131313"/><rect x="25" y="20" width="1" height="1" fill="#2b2b2b"/><rect x="26" y="20" width="5" height="1" fill="#131313"/><rect x="31" y="20" width="1" height="1" fill="#c1652f"/><rect x="32" y="20" width="1" height="1" fill="#2e1a0e"/><rect x="38" y="20" width="1" height="1" fill="#6b4a1c"/><rect x="39" y="20" width="4" height="1" fill="#4a3312"/><rect x="43" y="20" width="1" height="1" fill="#6b4a1c"/><rect x="5" y="21" width="1" height="1" fill="#2e1a0e"/><rect x="6" y="21" width="2" height="1" fill="#dd8047"/><rect x="8" y="21" width="9" height="1" fill="#131313"/><rect x="17" y="21" width="5" height="1" fill="#c1652f"/><rect x="22" y="21" width="9" height="1" fill="#131313"/><rect x="31" y="21" width="2" height="1" fill="#a04e22"/><rect x="33" y="21" width="1" height="1" fill="#2e1a0e"/><rect x="40" y="21" width="1" height="1" fill="#8a2f2f"/><rect x="41" y="21" width="1" height="1" fill="#5e1f1f"/><rect x="5" y="22" width="1" height="1" fill="#2e1a0e"/><rect x="6" y="22" width="3" height="1" fill="#dd8047"/><rect x="9" y="22" width="7" height="1" fill="#131313"/><rect x="16" y="22" width="7" height="1" fill="#c1652f"/><rect x="23" y="22" width="7" height="1" fill="#131313"/><rect x="30" y="22" width="3" height="1" fill="#a04e22"/><rect x="33" y="22" width="1" height="1" fill="#2e1a0e"/><rect x="40" y="22" width="1" height="1" fill="#5e1f1f"/><rect x="41" y="22" width="1" height="1" fill="#8a2f2f"/><rect x="5" y="23" width="1" height="1" fill="#2e1a0e"/><rect x="6" y="23" width="2" height="1" fill="#dd8047"/><rect x="8" y="23" width="21" height="1" fill="#c1652f"/><rect x="29" y="23" width="4" height="1" fill="#a04e22"/><rect x="33" y="23" width="6" height="1" fill="#2e1a0e"/><rect x="39" y="23" width="1" height="1" fill="#c1652f"/><rect x="40" y="23" width="1" height="1" fill="#8a2f2f"/><rect x="41" y="23" width="1" height="1" fill="#5e1f1f"/><rect x="42" y="23" width="1" height="1" fill="#c1652f"/><rect x="5" y="24" width="1" height="1" fill="#2e1a0e"/><rect x="6" y="24" width="1" height="1" fill="#dd8047"/><rect x="7" y="24" width="20" height="1" fill="#c1652f"/><rect x="27" y="24" width="6" height="1" fill="#a04e22"/><rect x="33" y="24" width="1" height="1" fill="#2e1a0e"/><rect x="34" y="24" width="6" height="1" fill="#c1652f"/><rect x="40" y="24" width="1" height="1" fill="#5e1f1f"/><rect x="41" y="24" width="1" height="1" fill="#8a2f2f"/><rect x="42" y="24" width="1" height="1" fill="#c1652f"/><rect x="5" y="25" width="1" height="1" fill="#2e1a0e"/><rect x="6" y="25" width="20" height="1" fill="#c1652f"/><rect x="26" y="25" width="7" height="1" fill="#a04e22"/><rect x="33" y="25" width="1" height="1" fill="#2e1a0e"/><rect x="34" y="25" width="6" height="1" fill="#a04e22"/><rect x="40" y="25" width="1" height="1" fill="#8a2f2f"/><rect x="41" y="25" width="1" height="1" fill="#5e1f1f"/><rect x="42" y="25" width="1" height="1" fill="#c1652f"/><rect x="6" y="26" width="1" height="1" fill="#2e1a0e"/><rect x="7" y="26" width="18" height="1" fill="#c1652f"/><rect x="25" y="26" width="7" height="1" fill="#a04e22"/><rect x="32" y="26" width="8" height="1" fill="#2e1a0e"/><rect x="40" y="26" width="1" height="1" fill="#5e1f1f"/><rect x="41" y="26" width="1" height="1" fill="#8a2f2f"/><rect x="6" y="27" width="1" height="1" fill="#2e1a0e"/><rect x="7" y="27" width="1" height="1" fill="#c1652f"/><rect x="8" y="27" width="3" height="1" fill="#e8848f"/><rect x="11" y="27" width="12" height="1" fill="#c1652f"/><rect x="23" y="27" width="5" height="1" fill="#a04e22"/><rect x="28" y="27" width="3" height="1" fill="#e8848f"/><rect x="31" y="27" width="1" height="1" fill="#a04e22"/><rect x="32" y="27" width="1" height="1" fill="#2e1a0e"/><rect x="40" y="27" width="1" height="1" fill="#8a2f2f"/><rect x="41" y="27" width="1" height="1" fill="#5e1f1f"/><rect x="6" y="28" width="1" height="1" fill="#2e1a0e"/><rect x="7" y="28" width="1" height="1" fill="#c1652f"/><rect x="8" y="28" width="3" height="1" fill="#d96f7c"/><rect x="11" y="28" width="5" height="1" fill="#c1652f"/><rect x="16" y="28" width="1" height="1" fill="#2e1a0e"/><rect x="17" y="28" width="4" height="1" fill="#c1652f"/><rect x="21" y="28" width="1" height="1" fill="#2e1a0e"/><rect x="22" y="28" width="6" height="1" fill="#a04e22"/><rect x="28" y="28" width="3" height="1" fill="#d96f7c"/><rect x="31" y="28" width="1" height="1" fill="#a04e22"/><rect x="32" y="28" width="1" height="1" fill="#2e1a0e"/><rect x="40" y="28" width="2" height="1" fill="#5e1f1f"/><rect x="7" y="29" width="1" height="1" fill="#2e1a0e"/><rect x="8" y="29" width="9" height="1" fill="#c1652f"/><rect x="17" y="29" width="4" height="1" fill="#2e1a0e"/><rect x="21" y="29" width="10" height="1" fill="#a04e22"/><rect x="31" y="29" width="1" height="1" fill="#2e1a0e"/><rect x="8" y="30" width="1" height="1" fill="#2e1a0e"/><rect x="9" y="30" width="11" height="1" fill="#c1652f"/><rect x="20" y="30" width="10" height="1" fill="#a04e22"/><rect x="30" y="30" width="1" height="1" fill="#2e1a0e"/><rect x="9" y="31" width="1" height="1" fill="#2e1a0e"/><rect x="10" y="31" width="8" height="1" fill="#c1652f"/><rect x="18" y="31" width="11" height="1" fill="#a04e22"/><rect x="29" y="31" width="1" height="1" fill="#2e1a0e"/><rect x="10" y="32" width="1" height="1" fill="#2e1a0e"/><rect x="11" y="32" width="6" height="1" fill="#c1652f"/><rect x="17" y="32" width="11" height="1" fill="#a04e22"/><rect x="28" y="32" width="1" height="1" fill="#2e1a0e"/><rect x="11" y="33" width="2" height="1" fill="#2e1a0e"/><rect x="13" y="33" width="3" height="1" fill="#c1652f"/><rect x="16" y="33" width="10" height="1" fill="#a04e22"/><rect x="26" y="33" width="2" height="1" fill="#2e1a0e"/><rect x="13" y="34" width="2" height="1" fill="#2e1a0e"/><rect x="15" y="34" width="9" height="1" fill="#a04e22"/><rect x="24" y="34" width="2" height="1" fill="#2e1a0e"/><rect x="15" y="35" width="9" height="1" fill="#2e1a0e"/><rect x="8" y="37" width="24" height="1" fill="#1a1715"/><rect x="39" y="37" width="4" height="1" fill="#1a1715"/></svg>